<?xml version="1.0" standalone="no"?>
<!DOCTYPE svg PUBLIC "-//W3C//DTD SVG 20010904//EN"
 "http://www.w3.org/TR/2001/REC-SVG-20010904/DTD/svg10.dtd">
<svg version="1.0" xmlns="http://www.w3.org/2000/svg"
 width="1024.000000pt" height="1024.000000pt" viewBox="0 0 1024.000000 1024.000000"
 preserveAspectRatio="xMidYMid meet">

<g transform="translate(0.000000,1024.000000) scale(0.100000,-0.100000)"
fill="#000000" stroke="none">
<path d="M1445 9540 c-673 -50 -1141 -324 -1340 -787 -164 -381 -126 -824 100
-1168 271 -414 772 -652 1431 -680 71 -3 161 -8 200 -11 l71 -5 -64 -162 c-35
-89 -92 -232 -127 -318 l-62 -155 -12 74 c-21 133 -91 245 -183 292 -126 65
-339 39 -523 -64 -340 -190 -620 -589 -724 -1031 -23 -95 -26 -132 -26 -275 0
-152 2 -171 27 -245 46 -140 109 -218 217 -269 59 -28 74 -31 165 -30 84 0
111 5 170 28 177 68 329 211 497 466 39 60 73 108 74 107 2 -2 -4 -45 -12 -97
-10 -61 -14 -129 -11 -190 8 -152 49 -236 140 -286 45 -24 62 -28 132 -27 96
0 161 23 267 92 139 91 288 251 440 477 43 63 78 112 78 110 0 -10 -91 -248
-169 -445 -45 -112 -79 -206 -76 -210 4 -3 76 -6 162 -6 l155 0 102 275 c162
434 351 857 477 1067 172 288 364 465 520 479 67 6 113 -18 136 -74 34 -81 -4
-208 -179 -592 -233 -513 -271 -629 -272 -835 0 -115 2 -136 23 -182 27 -62
92 -125 146 -143 23 -8 69 -11 121 -8 73 4 93 9 166 46 46 23 96 53 112 66
l29 24 -22 30 -21 30 -65 -43 c-98 -66 -167 -72 -202 -18 -14 21 -18 46 -17
113 2 138 45 262 212 617 180 381 235 554 236 743 1 134 -18 193 -83 260 -51
53 -119 80 -201 80 -54 0 -175 -32 -234 -62 -108 -55 -232 -161 -326 -278 -24
-30 -41 -48 -38 -40 67 176 316 801 322 807 2 2 59 17 127 34 491 119 944 295
1318 513 62 36 117 63 122 61 4 -3 33 -43 63 -88 75 -113 177 -312 220 -432
49 -133 56 -149 49 -105 -3 19 -25 95 -50 169 -45 137 -111 279 -189 406 -23
40 -44 76 -46 82 -2 5 42 44 98 86 119 89 289 264 357 365 69 103 134 246 164
359 33 128 37 317 9 438 -36 159 -122 305 -238 403 -226 191 -548 224 -846 87
-216 -100 -455 -323 -621 -578 -42 -65 -45 -67 -65 -53 -65 46 -340 204 -462
264 -365 182 -790 328 -1144 392 -264 47 -574 67 -805 50z m3613 -176 c199
-98 292 -273 292 -551 0 -316 -104 -578 -332 -836 -33 -37 -72 -76 -87 -86
l-27 -19 -99 126 c-129 165 -383 419 -562 561 l-142 113 43 71 c148 248 229
358 353 478 147 142 258 193 401 185 72 -3 95 -9 160 -42z m-2976 1 c507 -70
935 -199 1373 -416 182 -89 365 -195 365 -209 0 -6 -25 -54 -56 -107 -132
-228 -369 -727 -559 -1173 -174 -410 -155 -373 -200 -383 -152 -31 -708 -97
-721 -85 -7 7 42 134 460 1183 107 269 193 491 192 492 -2 2 -33 -17 -69 -41
-73 -49 -147 -80 -250 -104 l-67 -16 -241 -606 c-132 -333 -268 -676 -302
-764 l-62 -158 -170 6 c-479 17 -826 112 -1115 305 -94 62 -226 187 -287 271
-243 335 -282 773 -100 1135 102 205 291 388 521 505 156 79 388 147 578 169
51 6 107 13 123 15 63 9 485 -4 587 -19z m2082 -854 c193 -143 369 -302 510
-460 110 -124 176 -207 176 -221 0 -13 -153 -120 -293 -204 -219 -132 -420
-223 -723 -326 -142 -49 -381 -120 -402 -120 -6 0 4 35 23 78 18 42 72 169
120 282 227 535 462 1040 485 1040 6 0 53 -31 104 -69z m-1178 -1573 c-88
-234 -404 -1003 -446 -1089 -268 -534 -586 -931 -818 -1022 -145 -57 -192 38
-141 286 38 191 180 581 509 1407 78 195 145 363 147 373 4 12 16 17 41 17 57
0 477 50 587 69 55 10 110 19 122 20 l23 1 -24 -62z m-1515 -433 c25 -18 48
-47 66 -84 23 -48 27 -72 31 -171 6 -166 -7 -231 -89 -437 -157 -397 -292
-626 -474 -809 -92 -93 -123 -118 -189 -150 -72 -35 -88 -39 -157 -39 -63 0
-83 4 -106 21 -73 54 -99 141 -90 304 25 438 369 1119 665 1317 128 86 261
104 343 48z"/>
<path d="M4345 6663 c-11 -2 -44 -11 -72 -19 -52 -14 -53 -15 -53 -54 0 -38 1
-39 26 -30 33 13 110 13 133 0 10 -5 24 -22 30 -38 25 -60 -10 -168 -161 -502
-268 -590 -328 -764 -328 -947 0 -227 114 -363 303 -363 136 0 265 61 399 188
48 47 111 118 138 159 28 41 50 71 50 66 0 -4 -31 -91 -69 -193 l-68 -185 -89
-48 c-506 -274 -636 -346 -809 -445 -857 -489 -1342 -978 -1476 -1487 -20 -76
-24 -114 -24 -240 1 -175 20 -266 85 -400 75 -154 174 -251 335 -330 138 -67
234 -89 390 -89 157 1 233 17 360 80 215 105 392 299 587 644 104 184 135 247
313 650 48 108 294 727 423 1065 62 160 145 377 186 484 l74 193 145 88 c159
97 243 152 327 215 30 23 60 45 67 48 7 5 19 -16 33 -60 33 -102 78 -180 147
-254 159 -168 408 -204 694 -100 127 47 239 120 346 227 l93 92 42 -81 c107
-206 280 -308 498 -294 114 7 186 28 305 86 125 62 239 153 335 268 230 276
352 574 367 898 l5 130 52 55 c29 30 110 121 179 202 135 156 169 188 198 188
70 0 16 -192 -238 -855 -229 -597 -353 -929 -353 -943 0 -10 35 -12 162 -10
l163 3 34 100 c207 615 454 1142 658 1408 198 257 407 373 517 286 84 -66 54
-193 -151 -644 -126 -278 -182 -412 -218 -525 -106 -337 -55 -569 139 -630 25
-8 70 -11 124 -7 75 4 95 10 177 51 153 76 296 229 346 371 29 84 27 95 -21
95 -35 0 -40 -3 -40 -22 0 -57 -98 -211 -183 -289 -58 -52 -144 -91 -203 -93
-46 -1 -57 3 -81 27 -27 27 -28 31 -27 130 1 129 30 223 151 487 240 521 279
634 290 825 9 169 -37 280 -139 329 -157 75 -359 20 -556 -151 -73 -64 -202
-216 -274 -323 -28 -41 -48 -66 -44 -55 5 11 19 72 32 135 38 184 30 284 -29
355 -37 45 -81 65 -142 65 -101 0 -166 -52 -378 -301 l-152 -179 -13 63 c-41
206 -129 336 -268 399 -39 18 -68 22 -139 23 -83 0 -96 -3 -165 -36 -100 -48
-172 -120 -219 -218 -34 -72 -36 -81 -36 -181 0 -88 4 -113 23 -154 38 -84 85
-132 169 -173 75 -37 79 -38 190 -38 95 0 113 -2 113 -15 0 -37 -75 -273 -130
-413 -126 -316 -284 -534 -447 -613 -50 -25 -70 -29 -145 -29 -81 0 -88 2
-125 30 -86 69 -119 199 -110 435 7 167 24 274 72 440 110 381 272 686 469
880 36 35 66 68 66 72 0 28 -152 -16 -267 -77 -434 -229 -713 -814 -627 -1313
l16 -92 -32 -40 c-47 -59 -151 -151 -215 -189 -31 -19 -93 -48 -138 -64 -72
-27 -96 -30 -192 -31 -99 -1 -116 2 -166 25 -31 15 -75 44 -98 64 -99 89 -148
291 -125 512 l7 61 91 22 c224 56 465 161 620 271 154 110 273 257 314 389 25
83 23 231 -5 292 -67 146 -257 222 -466 187 -183 -32 -330 -113 -487 -269
-150 -150 -249 -306 -320 -505 -63 -178 -93 -377 -81 -534 l7 -84 -51 -37
c-124 -91 -426 -283 -433 -275 -4 4 48 145 148 405 73 188 220 576 380 1000
48 129 93 247 99 263 l11 27 -170 0 c-112 0 -170 -4 -170 -10 0 -12 -28 -88
-182 -500 -128 -343 -182 -468 -284 -670 -185 -366 -344 -551 -528 -611 -77
-25 -122 -21 -157 17 -22 23 -24 34 -24 117 0 51 6 115 14 142 23 82 94 259
176 440 188 414 241 552 270 711 38 200 -15 337 -146 374 -34 10 -136 12 -174
3z m3729 -103 c57 -51 71 -103 71 -270 0 -137 -24 -326 -45 -361 -11 -17 -146
-24 -197 -10 -214 58 -260 383 -82 586 40 45 122 85 176 85 33 0 50 -7 77 -30z
m-1448 1 c44 -27 66 -80 66 -160 0 -284 -262 -616 -615 -781 -79 -37 -165 -65
-173 -58 -2 2 8 52 21 111 96 426 335 822 540 895 49 17 126 14 161 -7z
m-2035 -2028 c-503 -1363 -715 -1884 -896 -2198 -203 -353 -372 -487 -631
-502 -251 -15 -438 119 -523 373 -65 193 -58 389 21 614 144 409 562 862 1165
1266 193 129 858 523 885 524 4 0 -5 -35 -21 -77z"/>
<path d="M5968 4295 c-395 -75 -704 -399 -790 -827 -20 -103 -15 -356 9 -464
106 -458 419 -727 848 -727 353 -1 626 154 809 459 42 69 41 77 26 -148 -36
-530 -158 -1060 -306 -1325 -186 -331 -606 -558 -837 -451 -53 25 -177 130
-177 150 0 4 24 8 53 8 102 0 176 70 185 174 6 70 -9 112 -56 160 -47 50 -93
69 -162 69 -67 0 -106 -19 -154 -74 -47 -56 -64 -127 -48 -210 16 -89 48 -146
121 -220 143 -144 336 -195 582 -155 342 57 617 233 804 517 239 362 385 972
385 1603 0 356 -53 633 -165 862 -148 304 -386 507 -685 584 -111 28 -331 36
-442 15z m394 -135 c251 -92 406 -320 469 -690 16 -95 17 -333 1 -427 -40
-237 -157 -417 -347 -532 -127 -77 -303 -110 -435 -82 -305 65 -514 435 -513
906 1 211 36 363 121 530 83 161 232 283 382 314 30 6 64 13 75 15 46 10 173
-7 247 -34z"/>
<path d="M8131 4299 c-305 -36 -559 -206 -688 -463 -110 -219 -112 -519 -5
-774 72 -172 210 -326 410 -457 82 -54 118 -83 110 -88 -7 -4 -62 -35 -123
-68 -227 -126 -349 -226 -444 -369 -190 -284 -201 -646 -29 -944 52 -90 208
-247 298 -299 163 -94 341 -139 555 -141 215 -1 382 38 553 129 316 168 492
490 469 855 -24 371 -235 663 -659 913 -48 29 -87 54 -87 57 0 3 32 21 72 40
205 100 406 270 490 414 151 258 132 609 -47 859 -135 191 -356 309 -627 337
-113 11 -142 11 -248 -1z m265 -129 c99 -26 170 -68 243 -145 144 -155 213
-458 165 -730 -37 -211 -152 -396 -339 -545 l-64 -51 -92 52 c-380 210 -532
357 -601 579 -20 64 -23 96 -23 220 0 157 16 233 72 345 118 235 370 344 639
275z m-202 -1772 c520 -286 665 -447 696 -776 38 -404 -168 -725 -513 -796
-289 -60 -555 72 -697 344 -63 122 -81 202 -87 376 -6 174 7 262 61 406 57
151 116 238 263 386 72 72 135 132 139 132 4 0 66 -32 138 -72z"/>
</g>
</svg>
