<svg width="200" height="75" viewBox="0 0 200 75" fill="none" xmlns="http://www.w3.org/2000/svg">
<path d="M46.035 62.7164C35.2855 62.7153 24.6194 62.7146 13.9533 62.7125C12.5191 62.7122 12.5177 62.7088 12.5161 61.3191C12.5098 55.875 12.4984 50.4308 12.5002 44.9867C12.5025 37.9409 15.1252 31.9095 19.6501 26.6245C22.1762 23.674 25.2096 21.3649 28.6651 19.6109C29.157 19.3613 29.8026 18.771 30.2421 19.6028C30.6952 20.4604 29.8646 20.6839 29.3309 20.9669C24.275 23.6475 20.2288 27.3728 17.4231 32.3971C16.7631 33.5791 16.7563 33.6042 17.9748 34.5251C18.7284 31.9636 20.3988 30.3511 23.0619 30.202C25.7427 30.0518 27.4961 31.5053 28.3425 33.9976C28.912 34.0561 29.3101 33.7413 29.7656 33.6414C32.355 33.0735 34.9175 34.9373 35.4148 37.7635C36.0447 41.3432 33.8273 44.0327 30.176 44.0528C25.1486 44.0804 20.1209 44.0846 15.0936 44.0505C14.3025 44.0451 14.1018 44.2924 14.115 45.04C14.1618 47.7036 14.1755 50.3683 14.1494 53.0321C14.1411 53.878 14.6504 53.7998 15.1909 53.7993C23.9682 53.7917 32.7456 53.7859 41.5229 53.7809C43.8561 53.7796 46.1893 53.7768 48.5225 53.7884C48.9499 53.7905 49.3405 53.7296 49.7191 53.5158C50.7797 52.9171 51.9225 52.6044 53.1445 52.6282C53.6056 52.6372 53.8921 52.5479 54.0476 52.0159C55.0866 48.4605 57.5302 46.4136 61.1503 46.0276C64.6442 45.655 67.3476 47.2381 69.2297 50.1519C69.6577 50.8146 70.0311 51.065 70.7468 50.7505C70.8709 50.6959 71.0158 50.6827 71.153 50.6648C72.4997 50.4896 72.4566 50.489 72.5029 49.0994C72.6222 45.5206 72.3374 42.0008 71.1296 38.5989C70.9504 38.0942 71.072 37.7044 71.5855 37.526C72.1403 37.3332 72.4196 37.6943 72.579 38.1492C73.418 40.5436 74.0351 43.0038 74.0671 45.5409C74.1352 50.9287 74.0732 56.318 74.1084 61.7064C74.1139 62.5501 73.7904 62.7217 73.0331 62.7204C64.0615 62.7042 55.0899 62.7137 46.035 62.7164ZM55.7384 54.723C51.2451 53.155 47.3336 55.7457 47.3654 60.2429C47.3704 60.9418 47.6173 61.1397 48.2915 61.1384C56.0682 61.1235 63.8448 61.1261 71.6214 61.1473C72.3137 61.1492 72.5389 60.9173 72.526 60.2329C72.4878 58.2061 72.5072 56.1782 72.4995 54.1508C72.4909 51.8802 72.3862 51.8123 70.234 52.6482C69.268 53.0234 69.0055 52.9351 68.5063 52.001C68.1258 51.2888 67.7359 50.5837 67.2007 49.9752C65.4849 48.0246 63.2984 47.2271 60.7685 47.633C58.2732 48.0333 56.5622 49.5025 55.6633 51.8994C55.4145 52.5629 55.4723 52.9824 56.2122 53.2316C56.6247 53.3705 57.0196 53.6104 57.3684 53.8758C57.7 54.1281 57.8398 54.5012 57.5747 54.9054C57.3288 55.2803 56.989 55.2729 56.6218 55.109C56.3684 54.9959 56.1151 54.8823 55.7384 54.723ZM31.6184 55.3947C27.1199 55.3971 22.6214 55.3994 18.1229 55.4019C17.0121 55.4026 15.9012 55.4159 14.7907 55.3998C14.3294 55.393 14.1595 55.557 14.1614 56.0348C14.1669 57.4221 14.1564 58.811 14.0895 60.1963C14.0535 60.9426 14.3386 61.1513 15.0534 61.1423C17.7465 61.1084 20.4403 61.1241 23.1338 61.1238C30.2981 61.1231 37.4624 61.1238 44.6266 61.1238C45.7267 61.1238 45.7679 61.124 45.785 60.0062C45.807 58.5734 46.2845 57.2924 46.929 56.0487C47.0242 55.865 47.2372 55.7066 47.0768 55.3948C41.9967 55.3948 36.8909 55.3948 31.6184 55.3947ZM31.1502 42.4113C33.189 42.1384 34.1288 40.3374 33.9802 38.5442C33.8073 36.4579 31.8565 34.0877 29.1049 35.4792C28.8331 35.6167 28.5433 35.7187 28.2727 35.8584C27.6889 36.1598 27.3133 35.9182 27.0681 35.3922C26.9522 35.1436 26.895 34.8668 26.8184 34.6006C26.2851 32.7483 25.057 31.7371 23.3238 31.7261C21.585 31.7151 20.0167 32.9233 19.54 34.6761C19.4248 35.0998 19.4124 35.5507 19.3384 35.9866C19.2714 36.381 19.1476 36.7425 18.7112 36.8883C18.2502 37.0423 17.9996 36.759 17.7229 36.4635C17.2585 35.9675 16.8283 35.4166 16.1306 35.1739C16.0463 35.293 15.9658 35.3742 15.9232 35.4719C15.0403 37.4947 14.5519 39.621 14.2651 41.8006C14.1946 42.337 14.4709 42.4662 14.9459 42.4647C20.2993 42.4486 25.6526 42.4424 31.1502 42.4113Z" fill="black"/>
<path d="M38.3756 31.8533C34.9928 29.8216 33.223 26.8335 33.029 23.0012C32.8032 18.5418 35.9597 14.2045 40.2298 12.8529C46.032 11.0163 51.9184 14.1985 53.5682 20.0637C55.224 25.9504 51.1702 32.1525 45.1091 33.0565C42.7376 33.4102 40.529 32.9971 38.3756 31.8533ZM43.4561 13.8774C38.4234 13.9505 34.5104 17.8957 34.5524 22.8543C34.593 27.6458 38.5747 31.6347 43.3177 31.6356C48.4415 31.6366 52.5145 27.7743 52.4375 22.6865C52.3505 16.9398 47.647 13.8253 43.4561 13.8774Z" fill="black"/>
<path d="M58.6939 26.3996C59.478 22.8823 61.632 20.7957 65.0473 20.0604C66.5319 19.7408 68.0347 19.8833 69.4377 20.5602C69.7803 20.7255 70.2125 20.8716 70.1797 21.3531C70.1458 21.8494 69.6903 21.8925 69.3216 21.9956C68.8417 22.1299 68.3455 22.2175 67.8799 22.3893C65.5775 23.239 64.434 25.0397 64.5621 27.5699C64.672 29.7405 66.2322 31.5068 68.5583 32.1206C69.2376 32.2998 69.9314 32.2897 70.6195 32.3623C71.0729 32.4101 71.6401 32.3695 71.7814 32.9617C71.9169 33.5296 71.4268 33.8015 71.0626 34.0747C68.7665 35.7966 64.8891 35.9162 62.3989 34.3372C59.5057 32.5026 58.32 29.8479 58.6939 26.3996ZM61.6831 23.5726C58.685 27.0653 60.2965 31.7818 63.8224 33.346C65.1333 33.9276 66.826 34.0145 67.8923 33.5157C65.3044 32.6445 63.5506 30.9929 63.0839 28.2625C62.6265 25.5868 63.689 23.4214 65.761 21.6111C64.2848 21.6135 63.1263 22.1774 61.6831 23.5726Z" fill="black"/>
<path d="M87.4175 34.3135C90.172 37.9627 92.9443 41.5206 95.9588 45.2201C95.9588 44.5315 95.9596 44.0987 95.9587 43.6658C95.9526 40.5016 95.9419 37.3374 95.945 34.1732C95.9454 33.7802 95.844 33.2981 96.484 33.24C97.1049 33.1836 97.4969 33.3103 97.4858 34.0653C97.4591 35.8968 97.4805 37.729 97.4815 39.5609C97.4828 41.9203 97.4981 44.2797 97.4708 46.6387C97.4656 47.0868 97.7448 47.709 97.0747 47.9337C96.3971 48.1609 96.0082 47.6985 95.6334 47.2169C93.145 44.0192 90.6475 40.8286 88.1512 37.637C87.7659 37.1444 87.372 36.6586 86.9567 36.1379C86.761 36.4725 86.8406 36.7525 86.8401 37.0182C86.8336 40.349 86.8334 43.6798 86.8351 47.0105C86.8354 47.4996 86.8746 47.961 86.1488 47.9751C85.3893 47.9898 85.3961 47.5285 85.3966 46.9912C85.4004 42.7445 85.3894 38.4977 85.4013 34.251C85.4023 33.9035 85.2077 33.4139 85.7502 33.2652C86.2523 33.1276 86.6753 33.2744 86.9621 33.7484C87.0759 33.9365 87.2387 34.095 87.4175 34.3135Z" fill="black"/>
<path d="M169.141 42.5649C168.399 45.4415 166.636 47.2534 163.819 47.9168C160.981 48.585 158.354 48.0703 156.331 45.8659C154.215 43.5608 153.852 40.7755 154.742 37.8519C155.58 35.0964 157.555 33.5594 160.35 32.9973C165.053 32.0513 169.287 35.4668 169.34 40.2626C169.349 41.0146 169.328 41.7608 169.141 42.5649ZM156.728 44.0758C158.161 46.2737 160.247 47.0045 162.761 46.7277C164.967 46.4847 166.523 45.3275 167.357 43.2692C167.887 41.9598 167.978 40.5968 167.734 39.1945C167.331 36.8806 165.712 34.9694 163.572 34.4931C161.012 33.9233 158.637 34.2693 157.031 36.5575C155.389 38.8964 155.462 41.4324 156.728 44.0758Z" fill="black"/>
<path d="M130.719 33.2435C134.234 34.0296 135.79 37.032 134.329 40.0978C133.669 41.4828 132.496 42.2043 130.865 42.5333C132.181 44.3158 133.432 46.0109 134.697 47.7257C133.659 48.1974 133.17 48.0793 132.611 47.3203C131.64 46.0018 130.653 44.6957 129.7 43.3643C129.347 42.8698 128.949 42.6024 128.315 42.6497C127.652 42.6992 126.982 42.6876 126.318 42.6571C125.695 42.6286 125.488 42.8992 125.503 43.4997C125.533 44.7202 125.503 45.9421 125.525 47.163C125.535 47.6958 125.399 47.99 124.788 47.9947C124.159 47.9996 124.064 47.6733 124.064 47.1564C124.072 42.7711 124.078 38.3858 124.054 34.0007C124.05 33.3501 124.325 33.1984 124.898 33.2058C126.813 33.2307 128.728 33.2281 130.719 33.2435ZM125.518 37.693C125.517 38.6365 125.533 39.5804 125.508 40.5233C125.494 41.0434 125.669 41.2945 126.22 41.2823C127.635 41.2509 129.053 41.295 130.464 41.2161C132.11 41.1241 133.199 39.9127 133.241 38.2543C133.297 36.1107 132.416 34.9252 130.613 34.6442C129.148 34.4158 127.677 34.5588 126.21 34.5089C125.647 34.4898 125.492 34.7706 125.508 35.2789C125.531 36.0275 125.516 36.7772 125.518 37.693Z" fill="black"/>
<path d="M104.568 46.2402C106.362 42.1084 108.133 38.0358 109.911 33.9659C110.07 33.6001 110.135 33.1416 110.698 33.1246C111.273 33.1071 111.44 33.5193 111.621 33.9313C113.564 38.3524 115.507 42.7733 117.445 47.1961C117.531 47.3918 117.67 47.5894 117.559 47.8244C116.512 48.1344 116.279 48.0503 115.861 47.1442C115.547 46.4641 115.255 45.7735 114.974 45.0791C114.807 44.6673 114.546 44.4859 114.087 44.4895C111.866 44.5066 109.644 44.5067 107.422 44.4939C106.995 44.4914 106.758 44.6595 106.608 45.0476C106.347 45.7201 106.051 46.3791 105.778 47.0471C105.361 48.0681 105.193 48.1505 104.057 47.8447C103.977 47.2569 104.394 46.8177 104.568 46.2402ZM110.181 36.746C109.313 38.8157 108.445 40.8855 107.57 42.9743C109.769 42.9743 111.814 42.9743 114.026 42.9743C112.92 40.4195 111.883 38.0225 110.828 35.5863C110.463 35.9005 110.425 36.3104 110.181 36.746Z" fill="black"/>
<path d="M179.641 34.639C179.803 34.278 179.946 33.9768 180.074 33.6697C180.217 33.3255 180.45 33.1402 180.84 33.1596C181.204 33.1777 181.365 33.4064 181.495 33.7053C182.389 35.7665 183.291 37.8242 184.187 39.8847C185.249 42.327 186.307 44.771 187.366 47.2141C187.443 47.3902 187.554 47.5585 187.486 47.7658C186.567 48.1864 186.172 48.0562 185.8 47.2041C185.59 46.721 185.382 46.2364 185.179 45.7502C184.651 44.4909 184.652 44.4905 183.249 44.4921C181.445 44.4942 179.64 44.5411 177.838 44.4775C177.026 44.4489 176.613 44.7257 176.401 45.4842C176.252 46.0154 176.001 46.518 175.794 47.0327C175.387 48.0443 175.208 48.1293 173.947 47.8001C175.716 43.3652 177.658 39.0277 179.641 34.639ZM183.825 42.8734C183.576 41.7569 182.997 40.7694 182.578 39.7201C182.029 38.3461 181.41 37.0001 180.739 35.4525C179.624 38.0688 178.59 40.4952 177.551 42.9318C178.09 43.193 178.539 43.0993 178.969 43.0854C180.567 43.0338 182.171 43.2481 183.825 42.8734Z" fill="black"/>
<path d="M141.539 46.3452C141.782 46.4392 141.962 46.5151 142.147 46.5731C144.276 47.2409 145.693 46.2701 145.726 44.0332C145.774 40.7596 145.745 37.4848 145.761 34.2106C145.763 33.8233 145.626 33.3264 146.258 33.2431C146.872 33.1621 147.293 33.2934 147.281 34.0418C147.226 37.4797 147.463 40.9224 147.17 44.3556C146.887 47.6673 144.062 49.17 141.071 47.6356C140.78 47.4863 140.401 47.3464 140.577 46.9087C140.73 46.5285 140.905 46.0953 141.539 46.3452Z" fill="black"/>
<path d="M52.0613 37.9107C51.1019 38.3746 50.4818 38.2867 50.0167 37.6681C49.542 37.037 49.5527 36.2695 50.0442 35.6874C50.5196 35.1244 51.27 34.9698 51.9115 35.3026C52.8798 35.805 52.964 36.8723 52.0613 37.9107Z" fill="black"/>
<path d="M41.5259 39.8231C41.076 39.3291 41.0216 38.8278 41.3446 38.3301C41.6084 37.9236 42.0237 37.7632 42.5052 37.872C42.9813 37.9796 43.2863 38.2886 43.3853 38.7671C43.4784 39.2169 43.3127 39.5947 42.9578 39.8697C42.5052 40.2204 42.0354 40.1935 41.5259 39.8231Z" fill="black"/>
<path d="M47.3473 45.2414C47.0658 45.7708 46.7145 46.1195 46.1392 45.9899C45.7061 45.8923 45.428 45.571 45.3471 45.1279C45.2665 44.6866 45.4078 44.3069 45.7792 44.0412C46.1231 43.7951 46.4962 43.7661 46.8656 43.9829C47.3258 44.2529 47.4829 44.6615 47.3473 45.2414Z" fill="black"/>
<path d="M38.8023 48.1286C38.4067 48.1948 38.1385 48.0673 37.9221 47.8282C37.4955 47.357 37.5662 46.5677 38.0614 46.1968C38.5061 45.8637 39.1194 45.9887 39.4324 46.4763C39.8037 47.0547 39.5867 47.6801 38.8023 48.1286Z" fill="black"/>
</svg>
