<svg width="48" height="48" viewBox="0 0 48 48" fill="none" xmlns="http://www.w3.org/2000/svg">
<path fill-rule="evenodd" clip-rule="evenodd" d="M36.6084 4.63044C35.6976 3.78986 34.3024 3.78984 33.3916 4.63044C32.8318 5.14694 31.5326 6.41312 30.359 8.07722C29.2192 9.6933 28 11.9598 28 14.4294C28 18.3771 30.977 21.8738 35 21.8738C39.023 21.8738 42 18.3771 42 14.4294C42 11.9598 40.7808 9.6933 39.641 8.07722C38.4674 6.41312 37.1682 5.14694 36.6084 4.63044ZM12.5837 10.6008C11.6818 9.78772 10.3182 9.78772 9.4163 10.6008C9.00464 10.9719 8.20002 11.7459 7.48364 12.7456C6.80044 13.6991 6 15.128 6 16.7627C6 19.5163 8.17064 21.8738 11 21.8738C13.8294 21.8738 16 19.5163 16 16.7627C16 15.128 15.1996 13.6991 14.5164 12.7456C13.8 11.7459 12.9954 10.9719 12.5837 10.6008ZM23.5784 18.5967C22.6752 17.793 21.3248 17.793 20.4216 18.5967C19.6945 19.2438 17.6428 21.1528 15.7576 23.716C13.9129 26.224 12 29.6616 12 33.3182C12 39.0194 16.3528 43.8738 22 43.8738C27.6472 43.8738 32 39.0194 32 33.3182C32 29.6616 30.0872 26.224 28.2424 23.716C26.3572 21.1528 24.3054 19.2438 23.5784 18.5967Z" fill="#60C6FF"/>
</svg>
