<?xml version="1.0" standalone="no"?>
<!DOCTYPE svg PUBLIC "-//W3C//DTD SVG 20010904//EN"
 "http://www.w3.org/TR/2001/REC-SVG-20010904/DTD/svg10.dtd">
<svg version="1.0" xmlns="http://www.w3.org/2000/svg"
 width="512.000000pt" height="512.000000pt" viewBox="0 0 512.000000 512.000000"
 preserveAspectRatio="xMidYMid meet">

<g transform="translate(0.000000,512.000000) scale(0.100000,-0.100000)"
fill="#000000" stroke="none">
<path d="M2321 5110 c-467 -45 -923 -224 -1310 -513 -124 -92 -396 -364 -488
-488 -147 -196 -288 -455 -368 -673 -48 -131 -108 -371 -131 -521 -25 -168
-25 -542 0 -710 23 -150 83 -390 131 -521 80 -218 221 -477 368 -673 92 -124
364 -396 488 -488 196 -147 455 -288 673 -368 131 -48 371 -108 521 -131 168
-25 542 -25 710 0 150 23 390 83 521 131 218 80 477 221 673 368 124 92 396
364 488 488 147 196 288 455 368 673 48 131 108 371 131 521 25 168 25 542 0
710 -23 150 -83 390 -131 521 -80 218 -221 477 -368 673 -92 124 -364 396
-488 488 -196 147 -455 288 -673 368 -131 48 -372 109 -516 130 -135 19 -464
28 -599 15z m454 -190 c455 -41 914 -227 1275 -517 548 -439 880 -1135 880
-1843 0 -708 -332 -1404 -880 -1843 -420 -337 -957 -527 -1490 -527 -708 0
-1404 332 -1843 880 -290 361 -476 820 -517 1275 -63 699 189 1394 685 1890
189 189 385 329 630 450 388 192 829 274 1260 235z"/>
<path d="M2330 4729 c-337 -35 -702 -168 -986 -360 -163 -110 -359 -291 -484
-446 -638 -793 -638 -1933 0 -2726 77 -97 240 -260 337 -337 623 -502 1481
-620 2217 -305 516 220 931 635 1151 1151 315 736 197 1594 -305 2217 -77 97
-240 260 -337 337 -444 357 -1022 527 -1593 469z m140 -726 l5 -542 23 -23
c33 -33 98 -30 129 6 l23 27 0 534 c0 294 3 536 8 538 4 3 50 1 102 -4 608
-59 1161 -404 1490 -929 117 -186 216 -435 259 -650 22 -110 42 -290 34 -302
-2 -5 -246 -8 -542 -8 l-538 0 -24 -26 c-32 -35 -32 -93 0 -128 l24 -26 538 0
c296 0 540 -3 542 -7 3 -5 1 -51 -4 -103 -59 -608 -404 -1161 -929 -1490 -186
-117 -435 -216 -650 -259 -110 -22 -290 -42 -302 -34 -5 2 -8 244 -8 538 l0
534 -23 27 c-34 39 -100 40 -133 1 l-24 -28 0 -534 c0 -294 -3 -536 -7 -538
-5 -3 -51 -1 -103 4 -608 59 -1161 404 -1490 929 -117 186 -216 435 -259 650
-22 110 -42 290 -34 303 2 4 246 7 542 7 l538 0 24 26 c32 35 32 93 0 128
l-24 26 -538 0 c-296 0 -540 3 -542 8 -3 4 -1 50 4 102 59 608 404 1161 929
1490 186 117 434 215 650 259 100 20 258 40 290 37 13 -1 16 -71 20 -543z"/>
</g>
</svg>
