<svg width="48" height="48" viewBox="0 0 48 48" fill="none" xmlns="http://www.w3.org/2000/svg">
<path fill-rule="evenodd" clip-rule="evenodd" d="M26.0468 6C26.0468 4.89544 25.1305 4 24 4C22.8696 4 21.9533 4.89544 21.9533 6V7.9232L20.6147 7.2318C19.6154 6.7156 18.377 7.08878 17.8487 8.06532C17.3205 9.04186 17.7024 10.2519 18.7017 10.7681L21.9533 12.4476V16.2521C20.4898 16.6201 19.1848 17.3737 18.1582 18.3953L14.7849 16.4922L14.9222 12.9008C14.9644 11.797 14.0829 10.8688 12.9533 10.8275C11.8237 10.7863 10.8738 11.6477 10.8315 12.7515L10.775 14.2299L9.07056 13.2683C8.09162 12.716 6.83985 13.0438 6.27466 14.0004C5.70945 14.957 6.04487 16.1801 7.02381 16.7324L8.72828 17.694L7.44624 18.4811C6.48905 19.0687 6.2006 20.3032 6.80196 21.2386C7.4033 22.1738 8.66672 22.4558 9.6239 21.8682L12.7382 19.9563L16.1098 21.8584C15.9165 22.54 15.8132 23.2582 15.8132 24C15.8132 24.7418 15.9165 25.46 16.1098 26.1416L12.7381 28.0438L9.6238 26.1318C8.66662 25.5442 7.4032 25.8262 6.80186 26.7614C6.2005 27.6968 6.48897 28.9314 7.44614 29.519L8.72818 30.306L7.02371 31.2676C6.04477 31.8198 5.70936 33.043 6.27455 33.9996C6.83974 34.9562 8.09152 35.284 9.07046 34.7316L10.7749 33.77L10.8314 35.2486C10.8736 36.3524 11.8236 37.2138 12.9532 37.1724C14.0828 37.1312 14.9643 36.203 14.9221 35.0992L14.7848 31.5078L18.1582 29.6048C19.1848 30.6264 20.4898 31.3798 21.9533 31.748V35.5524L18.7017 37.2318C17.7024 37.748 17.3205 38.9582 17.8487 39.9346C18.377 40.9112 19.6154 41.2844 20.6147 40.7682L21.9533 40.0768V42C21.9533 43.1046 22.8696 44 24 44C25.1305 44 26.0468 43.1046 26.0468 42V40.0768L27.3854 40.7682C28.3848 41.2844 29.6231 40.9112 30.1513 39.9346C30.6796 38.9582 30.2977 37.748 29.2985 37.2318L26.0468 35.5524V31.748C27.51 31.38 28.815 30.6266 29.8415 29.6054L33.2151 31.5086L33.078 35.1C33.0356 36.2038 33.9172 37.132 35.0468 37.1732C36.1764 37.2144 37.1263 36.353 37.1686 35.2492L37.2251 33.7708L38.9295 34.7324C39.9084 35.2848 41.1602 34.957 41.7255 34.0004C42.2906 33.0438 41.9552 31.8206 40.9762 31.2684L39.2719 30.3068L40.554 29.5196C41.511 28.932 41.7994 27.6976 41.1981 26.7622C40.5967 25.827 39.3333 25.545 38.3762 26.1326L35.2619 28.0446L31.8903 26.1424C32.0839 25.4606 32.1872 24.742 32.1872 24C32.1872 23.258 32.0839 22.5394 31.8903 21.8576L35.2619 19.9555L38.376 21.8674C39.3333 22.455 40.5967 22.173 41.1981 21.2378C41.7994 20.3024 41.511 19.0679 40.5538 18.4803L39.2717 17.6933L40.9762 16.7317C41.9552 16.1794 42.2906 14.9562 41.7253 13.9996C41.1602 13.043 39.9084 12.7153 38.9295 13.2676L37.2249 14.2292L37.1684 12.7507C37.1263 11.6469 36.1764 10.7855 35.0468 10.8268C33.9172 10.868 33.0356 11.7962 33.0778 12.9L33.2151 16.4914L29.8415 18.3946C28.815 17.3733 27.51 16.62 26.0468 16.252V12.4476L29.2985 10.7681C30.2977 10.2519 30.6796 9.04186 30.1513 8.06532C29.6231 7.08878 28.3848 6.7156 27.3854 7.2318L26.0468 7.9232V6Z" fill="white"/>
</svg>
