<svg width="48" height="48" viewBox="0 0 48 48" fill="none" xmlns="http://www.w3.org/2000/svg">
<path fill-rule="evenodd" clip-rule="evenodd" d="M26 40C26 38.8955 25.1046 38 24 38C22.8954 38 22 38.8955 22 40V42C22 43.1045 22.8954 44 24 44C25.1046 44 26 43.1045 26 42V40ZM38.1422 35.314L36.728 33.8994C35.947 33.1182 34.6806 33.1182 33.8996 33.8994C33.1186 34.6807 33.1186 35.9468 33.8996 36.728L35.3138 38.1421C36.0948 38.9233 37.3612 38.9233 38.1422 38.1421C38.9232 37.3608 38.9232 36.0947 38.1422 35.314ZM14.1004 33.8994C13.3194 33.1182 12.053 33.1182 11.272 33.8994L9.85776 35.314L9.69138 35.5024C9.08132 36.2866 9.13678 37.4214 9.85776 38.1421C10.6388 38.9233 11.9051 38.9233 12.6862 38.1421L14.1004 36.728L14.2668 36.5396C14.8768 35.7549 14.8214 34.6206 14.1004 33.8994ZM36 24C36 17.3726 30.6274 12 24 12C17.3726 12 12 17.3726 12 24C12 30.6274 17.3726 36 24 36C30.6274 36 36 30.6274 36 24ZM10 24C10 22.8955 9.10456 22 8 22H6L5.76676 22.0137C4.77209 22.1289 4 22.9741 4 24C4 25.1045 4.89544 26 6 26H8L8.23324 25.9863C9.22791 25.8711 10 25.0259 10 24ZM44 24C44 22.8955 43.1046 22 42 22H40C38.8954 22 38 22.8955 38 24C38 25.1045 38.8954 26 40 26H42C43.1046 26 44 25.1045 44 24ZM12.4978 9.69141C11.7133 9.08154 10.5788 9.13672 9.85782 9.85791C9.07676 10.6387 9.07676 11.9053 9.85782 12.686L11.272 14.1006L11.4604 14.2666C12.245 14.877 13.3795 14.8213 14.1005 14.1006C14.8815 13.3193 14.8815 12.0532 14.1005 11.272L12.6862 9.85791L12.4978 9.69141ZM36.728 14.1006L38.1422 12.686C38.9232 11.9053 38.9232 10.6387 38.1422 9.85791C37.361 9.07666 36.0948 9.07666 35.3138 9.85791L33.8996 11.272C33.1184 12.0532 33.1184 13.3193 33.8996 14.1006C34.6806 14.8813 35.9468 14.8813 36.728 14.1006ZM26 6C26 4.89551 25.1046 4 24 4C22.8954 4 22 4.89551 22 6V8C22 9.10449 22.8954 10 24 10C25.1046 10 26 9.10449 26 8V6Z" fill="#FFC548"/>
</svg>
